<svg xmlns="http://www.w3.org/2000/svg" xmlns:xlink="http://www.w3.org/1999/xlink" width="300" zoomAndPan="magnify" viewBox="0 0 224.87999 74.999997" height="100" preserveAspectRatio="xMidYMid meet" version="1.0"><defs><g/><clipPath id="ff304e282c"><path d="M 6.203125 15.6875 L 13.640625 15.6875 L 13.640625 24.054688 L 6.203125 24.054688 Z M 6.203125 15.6875 " clip-rule="nonzero"/></clipPath><clipPath id="6650034cc8"><path d="M 6.203125 24.054688 L 13.640625 24.054688 L 13.640625 32.425781 L 6.203125 32.425781 Z M 6.203125 24.054688 " clip-rule="nonzero"/></clipPath><clipPath id="d7bdcdfd8c"><path d="M 6.203125 32.425781 L 13.640625 32.425781 L 13.640625 40.792969 L 6.203125 40.792969 Z M 6.203125 32.425781 " clip-rule="nonzero"/></clipPath></defs><g fill="#f2e8cf" fill-opacity="1"><g transform="translate(19.616887, 39.795528)"><g><path d="M 1.78125 -24.4375 L 9.359375 -24.4375 C 11.648438 -24.4375 13.476562 -23.945312 14.84375 -22.96875 C 16.207031 -21.988281 16.890625 -20.40625 16.890625 -18.21875 C 16.890625 -15.769531 15.867188 -14.019531 13.828125 -12.96875 C 17.304688 -12.363281 19.046875 -10.3125 19.046875 -6.8125 C 19.046875 -4.757812 18.332031 -3.109375 16.90625 -1.859375 C 15.488281 -0.617188 13.535156 0 11.046875 0 L 1.78125 0 Z M 7.34375 -14.875 L 7.796875 -14.875 C 9.035156 -14.875 9.960938 -15.085938 10.578125 -15.515625 C 11.191406 -15.953125 11.5 -16.664062 11.5 -17.65625 C 11.5 -19.3125 10.265625 -20.140625 7.796875 -20.140625 L 7.34375 -20.140625 Z M 7.34375 -4.296875 L 9.09375 -4.296875 C 11.820312 -4.296875 13.1875 -5.203125 13.1875 -7.015625 C 13.1875 -8.109375 12.84375 -8.890625 12.15625 -9.359375 C 11.476562 -9.835938 10.457031 -10.078125 9.09375 -10.078125 L 7.34375 -10.078125 Z M 7.34375 -4.296875 "/></g></g></g><g fill="#f2e8cf" fill-opacity="1"><g transform="translate(39.345852, 39.795528)"><g><path d="M 0.6875 -12.234375 C 0.6875 -15.765625 1.890625 -18.753906 4.296875 -21.203125 C 6.703125 -23.660156 9.601562 -24.890625 13 -24.890625 C 16.414062 -24.890625 19.316406 -23.664062 21.703125 -21.21875 C 24.097656 -18.78125 25.296875 -15.785156 25.296875 -12.234375 C 25.296875 -8.660156 24.117188 -5.65625 21.765625 -3.21875 C 19.421875 -0.78125 16.5 0.4375 13 0.4375 C 9.425781 0.4375 6.476562 -0.769531 4.15625 -3.1875 C 1.84375 -5.601562 0.6875 -8.617188 0.6875 -12.234375 Z M 6.6875 -12.234375 C 6.6875 -10.953125 6.882812 -9.78125 7.28125 -8.71875 C 7.675781 -7.664062 8.367188 -6.773438 9.359375 -6.046875 C 10.347656 -5.316406 11.5625 -4.953125 13 -4.953125 C 15.070312 -4.953125 16.632812 -5.660156 17.6875 -7.078125 C 18.75 -8.503906 19.28125 -10.222656 19.28125 -12.234375 C 19.28125 -14.234375 18.742188 -15.945312 17.671875 -17.375 C 16.597656 -18.800781 15.039062 -19.515625 13 -19.515625 C 10.988281 -19.515625 9.429688 -18.800781 8.328125 -17.375 C 7.234375 -15.945312 6.6875 -14.234375 6.6875 -12.234375 Z M 6.6875 -12.234375 "/></g></g></g><g fill="#f2e8cf" fill-opacity="1"><g transform="translate(65.325276, 39.795528)"><g><path d="M 0.6875 -12.234375 C 0.6875 -15.765625 1.890625 -18.753906 4.296875 -21.203125 C 6.703125 -23.660156 9.601562 -24.890625 13 -24.890625 C 16.414062 -24.890625 19.316406 -23.664062 21.703125 -21.21875 C 24.097656 -18.78125 25.296875 -15.785156 25.296875 -12.234375 C 25.296875 -8.660156 24.117188 -5.65625 21.765625 -3.21875 C 19.421875 -0.78125 16.5 0.4375 13 0.4375 C 9.425781 0.4375 6.476562 -0.769531 4.15625 -3.1875 C 1.84375 -5.601562 0.6875 -8.617188 0.6875 -12.234375 Z M 6.6875 -12.234375 C 6.6875 -10.953125 6.882812 -9.78125 7.28125 -8.71875 C 7.675781 -7.664062 8.367188 -6.773438 9.359375 -6.046875 C 10.347656 -5.316406 11.5625 -4.953125 13 -4.953125 C 15.070312 -4.953125 16.632812 -5.660156 17.6875 -7.078125 C 18.75 -8.503906 19.28125 -10.222656 19.28125 -12.234375 C 19.28125 -14.234375 18.742188 -15.945312 17.671875 -17.375 C 16.597656 -18.800781 15.039062 -19.515625 13 -19.515625 C 10.988281 -19.515625 9.429688 -18.800781 8.328125 -17.375 C 7.234375 -15.945312 6.6875 -14.234375 6.6875 -12.234375 Z M 6.6875 -12.234375 "/></g></g></g><g fill="#f2e8cf" fill-opacity="1"><g transform="translate(91.3047, 39.795528)"><g><path d="M 24.03125 0 L 16.359375 0 L 7.34375 -10.375 L 7.34375 0 L 1.78125 0 L 1.78125 -24.4375 L 7.34375 -24.4375 L 7.34375 -14.453125 L 15.734375 -24.4375 L 22.484375 -24.4375 L 12.65625 -12.859375 Z M 24.03125 0 "/></g></g></g><g fill="#f2e8cf" fill-opacity="1"><g transform="translate(114.618061, 39.795528)"><g><path d="M 21.984375 0 L 20.828125 -14.484375 L 20.671875 -14.484375 L 15.671875 -0.140625 L 12.359375 -0.140625 L 7.34375 -14.484375 L 7.203125 -14.484375 L 6.046875 0 L 0.46875 0 L 2.671875 -24.4375 L 8.59375 -24.4375 L 14.015625 -10.34375 L 19.4375 -24.4375 L 25.359375 -24.4375 L 27.546875 0 Z M 21.984375 0 "/></g></g></g><g fill="#f2e8cf" fill-opacity="1"><g transform="translate(142.641479, 39.795528)"><g><path d="M 14.1875 -24.4375 L 24.0625 0 L 18.078125 0 L 16.265625 -4.890625 L 6.96875 -4.890625 L 5.15625 0 L -0.828125 0 L 9.03125 -24.4375 Z M 14.375 -9.78125 L 11.640625 -16.890625 L 11.578125 -16.890625 L 8.859375 -9.78125 Z M 14.375 -9.78125 "/></g></g></g><g fill="#f2e8cf" fill-opacity="1"><g transform="translate(165.865961, 39.795528)"><g><path d="M 1.78125 -24.4375 L 10.515625 -24.4375 C 12.867188 -24.4375 14.785156 -23.804688 16.265625 -22.546875 C 17.742188 -21.296875 18.484375 -19.507812 18.484375 -17.1875 C 18.484375 -15.382812 18.035156 -13.875 17.140625 -12.65625 C 16.242188 -11.445312 15.023438 -10.597656 13.484375 -10.109375 L 21.890625 0 L 14.8125 0 L 7.34375 -9.65625 L 7.34375 0 L 1.78125 0 Z M 7.34375 -13.59375 L 8 -13.59375 C 8.507812 -13.59375 8.941406 -13.601562 9.296875 -13.625 C 9.648438 -13.644531 10.054688 -13.710938 10.515625 -13.828125 C 10.972656 -13.953125 11.335938 -14.125 11.609375 -14.34375 C 11.890625 -14.5625 12.128906 -14.875 12.328125 -15.28125 C 12.523438 -15.695312 12.625 -16.203125 12.625 -16.796875 C 12.625 -17.390625 12.523438 -17.894531 12.328125 -18.3125 C 12.128906 -18.726562 11.890625 -19.039062 11.609375 -19.25 C 11.335938 -19.46875 10.972656 -19.632812 10.515625 -19.75 C 10.054688 -19.875 9.648438 -19.945312 9.296875 -19.96875 C 8.941406 -19.988281 8.507812 -20 8 -20 L 7.34375 -20 Z M 7.34375 -13.59375 "/></g></g></g><g fill="#f2e8cf" fill-opacity="1"><g transform="translate(187.076075, 39.795528)"><g><path d="M 24.03125 0 L 16.359375 0 L 7.34375 -10.375 L 7.34375 0 L 1.78125 0 L 1.78125 -24.4375 L 7.34375 -24.4375 L 7.34375 -14.453125 L 15.734375 -24.4375 L 22.484375 -24.4375 L 12.65625 -12.859375 Z M 24.03125 0 "/></g></g></g><g fill="#f2e8cf" fill-opacity="1"><g transform="translate(210.403081, 39.795528)"><g/></g></g><path stroke-linecap="butt" transform="matrix(0.7496, 0, 0, 0.7496, 6.203486, 44.42611)" fill="none" stroke-linejoin="miter" d="M -0.000481769 2.000629 L 280.393878 2.000629 " stroke="#f2e8cf" stroke-width="4" stroke-opacity="1" stroke-miterlimit="4"/><g clip-path="url(#ff304e282c)"><path fill="#bc4749" d="M 6.203125 15.6875 L 13.640625 15.6875 L 13.640625 24.054688 L 6.203125 24.054688 Z M 6.203125 15.6875 " fill-opacity="1" fill-rule="nonzero"/></g><g fill="#f2e8cf" fill-opacity="1"><g transform="translate(6.338744, 55.749813)"><g><path d="M 0.5 -4.609375 L 2.5625 -4.609375 C 2.820312 -4.609375 3.054688 -4.566406 3.265625 -4.484375 C 3.472656 -4.410156 3.648438 -4.300781 3.796875 -4.15625 C 3.953125 -4.019531 4.066406 -3.847656 4.140625 -3.640625 C 4.222656 -3.441406 4.265625 -3.226562 4.265625 -3 C 4.265625 -2.757812 4.222656 -2.539062 4.140625 -2.34375 C 4.066406 -2.144531 3.953125 -1.972656 3.796875 -1.828125 C 3.648438 -1.691406 3.472656 -1.582031 3.265625 -1.5 C 3.054688 -1.414062 2.820312 -1.375 2.5625 -1.375 L 1.546875 -1.375 L 1.546875 0 L 0.5 0 Z M 1.546875 -3.6875 L 1.546875 -2.296875 L 2.421875 -2.296875 C 2.640625 -2.296875 2.816406 -2.363281 2.953125 -2.5 C 3.085938 -2.632812 3.15625 -2.800781 3.15625 -3 C 3.15625 -3.195312 3.085938 -3.359375 2.953125 -3.484375 C 2.816406 -3.617188 2.640625 -3.6875 2.421875 -3.6875 Z M 1.546875 -3.6875 "/></g></g></g><g fill="#f2e8cf" fill-opacity="1"><g transform="translate(11.742009, 55.749813)"><g><path d="M 4.171875 -2.296875 C 4.171875 -2.523438 4.132812 -2.726562 4.0625 -2.90625 C 4 -3.09375 3.90625 -3.25 3.78125 -3.375 C 3.65625 -3.507812 3.507812 -3.609375 3.34375 -3.671875 C 3.175781 -3.742188 2.992188 -3.78125 2.796875 -3.78125 C 2.597656 -3.78125 2.414062 -3.742188 2.25 -3.671875 C 2.082031 -3.609375 1.9375 -3.507812 1.8125 -3.375 C 1.6875 -3.25 1.585938 -3.09375 1.515625 -2.90625 C 1.453125 -2.726562 1.421875 -2.523438 1.421875 -2.296875 C 1.421875 -2.078125 1.453125 -1.875 1.515625 -1.6875 C 1.585938 -1.507812 1.6875 -1.351562 1.8125 -1.21875 C 1.9375 -1.09375 2.082031 -0.992188 2.25 -0.921875 C 2.414062 -0.859375 2.597656 -0.828125 2.796875 -0.828125 C 2.984375 -0.828125 3.160156 -0.859375 3.328125 -0.921875 C 3.492188 -0.992188 3.640625 -1.09375 3.765625 -1.21875 C 3.890625 -1.351562 3.988281 -1.507812 4.0625 -1.6875 C 4.132812 -1.875 4.171875 -2.078125 4.171875 -2.296875 Z M 5.296875 -2.296875 C 5.296875 -1.941406 5.234375 -1.617188 5.109375 -1.328125 C 4.992188 -1.035156 4.828125 -0.78125 4.609375 -0.5625 C 4.390625 -0.351562 4.125 -0.191406 3.8125 -0.078125 C 3.507812 0.0351562 3.171875 0.09375 2.796875 0.09375 C 2.421875 0.09375 2.078125 0.0351562 1.765625 -0.078125 C 1.453125 -0.191406 1.1875 -0.351562 0.96875 -0.5625 C 0.757812 -0.78125 0.59375 -1.035156 0.46875 -1.328125 C 0.351562 -1.617188 0.296875 -1.941406 0.296875 -2.296875 C 0.296875 -2.648438 0.351562 -2.972656 0.46875 -3.265625 C 0.59375 -3.566406 0.757812 -3.820312 0.96875 -4.03125 C 1.1875 -4.238281 1.453125 -4.398438 1.765625 -4.515625 C 2.078125 -4.640625 2.421875 -4.703125 2.796875 -4.703125 C 3.171875 -4.703125 3.507812 -4.640625 3.8125 -4.515625 C 4.125 -4.398438 4.390625 -4.238281 4.609375 -4.03125 C 4.828125 -3.820312 4.992188 -3.566406 5.109375 -3.265625 C 5.234375 -2.972656 5.296875 -2.648438 5.296875 -2.296875 Z M 5.296875 -2.296875 "/></g></g></g><g fill="#f2e8cf" fill-opacity="1"><g transform="translate(18.137662, 55.749813)"><g><path d="M 3.359375 -3.15625 L 3.328125 -3.15625 L 3.25 -2.765625 L 2.5 0 L 1.421875 0 L 0.09375 -4.3125 L 0.09375 -4.609375 L 1.15625 -4.609375 L 1.90625 -1.8125 L 1.96875 -1.421875 L 2 -1.421875 L 2.078125 -1.8125 L 2.828125 -4.609375 L 3.875 -4.609375 L 4.640625 -1.8125 L 4.703125 -1.421875 L 4.734375 -1.421875 L 4.796875 -1.8125 L 5.53125 -4.609375 L 6.578125 -4.609375 L 6.578125 -4.3125 L 5.265625 0 L 4.171875 0 L 3.421875 -2.765625 Z M 3.359375 -3.15625 "/></g></g></g><g fill="#f2e8cf" fill-opacity="1"><g transform="translate(25.683498, 55.749813)"><g><path d="M 0.5 -4.609375 L 3.90625 -4.609375 L 3.90625 -3.65625 L 1.546875 -3.65625 L 1.546875 -2.765625 L 3.484375 -2.765625 L 3.484375 -1.90625 L 1.546875 -1.90625 L 1.546875 -0.953125 L 3.984375 -0.953125 L 3.984375 0 L 0.5 0 Z M 0.5 -4.609375 "/></g></g></g><g fill="#f2e8cf" fill-opacity="1"><g transform="translate(30.797586, 55.749813)"><g><path d="M 0.5 -4.609375 L 2.5625 -4.609375 C 2.820312 -4.609375 3.0625 -4.566406 3.28125 -4.484375 C 3.5 -4.398438 3.679688 -4.285156 3.828125 -4.140625 C 3.984375 -4.003906 4.101562 -3.84375 4.1875 -3.65625 C 4.269531 -3.46875 4.3125 -3.269531 4.3125 -3.0625 C 4.3125 -2.925781 4.296875 -2.800781 4.265625 -2.6875 C 4.234375 -2.570312 4.191406 -2.46875 4.140625 -2.375 C 4.097656 -2.289062 4.046875 -2.210938 3.984375 -2.140625 C 3.921875 -2.066406 3.859375 -2.003906 3.796875 -1.953125 C 3.648438 -1.816406 3.484375 -1.710938 3.296875 -1.640625 L 4.375 -0.296875 L 4.375 0 L 3.328125 0 L 2.234375 -1.453125 L 1.546875 -1.453125 L 1.546875 0 L 0.5 0 Z M 1.546875 -3.6875 L 1.546875 -2.375 L 2.46875 -2.375 C 2.6875 -2.375 2.859375 -2.4375 2.984375 -2.5625 C 3.117188 -2.6875 3.1875 -2.84375 3.1875 -3.03125 C 3.1875 -3.207031 3.117188 -3.359375 2.984375 -3.484375 C 2.859375 -3.617188 2.6875 -3.6875 2.46875 -3.6875 Z M 1.546875 -3.6875 "/></g></g></g><g fill="#f2e8cf" fill-opacity="1"><g transform="translate(36.24029, 55.749813)"><g><path d="M 0.5 -4.609375 L 3.90625 -4.609375 L 3.90625 -3.65625 L 1.546875 -3.65625 L 1.546875 -2.765625 L 3.484375 -2.765625 L 3.484375 -1.90625 L 1.546875 -1.90625 L 1.546875 -0.953125 L 3.984375 -0.953125 L 3.984375 0 L 0.5 0 Z M 0.5 -4.609375 "/></g></g></g><g fill="#f2e8cf" fill-opacity="1"><g transform="translate(41.354379, 55.749813)"><g><path d="M 0.5 0 L 0.5 -4.609375 L 2.171875 -4.609375 C 2.546875 -4.609375 2.882812 -4.550781 3.1875 -4.4375 C 3.488281 -4.332031 3.742188 -4.175781 3.953125 -3.96875 C 4.160156 -3.769531 4.320312 -3.53125 4.4375 -3.25 C 4.550781 -2.96875 4.609375 -2.648438 4.609375 -2.296875 C 4.609375 -1.953125 4.550781 -1.640625 4.4375 -1.359375 C 4.320312 -1.078125 4.160156 -0.832031 3.953125 -0.625 C 3.742188 -0.425781 3.488281 -0.269531 3.1875 -0.15625 C 2.882812 -0.0507812 2.546875 0 2.171875 0 Z M 2.171875 -0.921875 C 2.367188 -0.921875 2.546875 -0.953125 2.703125 -1.015625 C 2.867188 -1.078125 3.007812 -1.164062 3.125 -1.28125 C 3.238281 -1.40625 3.328125 -1.550781 3.390625 -1.71875 C 3.453125 -1.894531 3.484375 -2.085938 3.484375 -2.296875 C 3.484375 -2.515625 3.453125 -2.707031 3.390625 -2.875 C 3.328125 -3.050781 3.238281 -3.195312 3.125 -3.3125 C 3.007812 -3.4375 2.867188 -3.53125 2.703125 -3.59375 C 2.546875 -3.65625 2.367188 -3.6875 2.171875 -3.6875 L 1.546875 -3.6875 L 1.546875 -0.921875 Z M 2.171875 -0.921875 "/></g></g></g><g fill="#f2e8cf" fill-opacity="1"><g transform="translate(47.125698, 55.749813)"><g/></g></g><g fill="#f2e8cf" fill-opacity="1"><g transform="translate(49.70945, 55.749813)"><g><path d="M 3.546875 -2.40625 C 3.722656 -2.351562 3.882812 -2.28125 4.03125 -2.1875 C 4.144531 -2.101562 4.25 -1.988281 4.34375 -1.84375 C 4.445312 -1.695312 4.5 -1.503906 4.5 -1.265625 C 4.5 -1.085938 4.460938 -0.921875 4.390625 -0.765625 C 4.328125 -0.617188 4.226562 -0.488281 4.09375 -0.375 C 3.96875 -0.257812 3.804688 -0.164062 3.609375 -0.09375 C 3.421875 -0.03125 3.207031 0 2.96875 0 L 0.5 0 L 0.5 -4.609375 L 2.796875 -4.609375 C 3.035156 -4.609375 3.242188 -4.578125 3.421875 -4.515625 C 3.609375 -4.453125 3.765625 -4.363281 3.890625 -4.25 C 4.015625 -4.132812 4.109375 -4 4.171875 -3.84375 C 4.242188 -3.695312 4.28125 -3.535156 4.28125 -3.359375 C 4.28125 -3.171875 4.238281 -3.019531 4.15625 -2.90625 C 4.082031 -2.789062 4 -2.695312 3.90625 -2.625 C 3.800781 -2.539062 3.679688 -2.476562 3.546875 -2.4375 Z M 1.546875 -3.71875 L 1.546875 -2.734375 L 2.625 -2.734375 C 2.789062 -2.734375 2.921875 -2.773438 3.015625 -2.859375 C 3.109375 -2.953125 3.15625 -3.070312 3.15625 -3.21875 C 3.15625 -3.375 3.109375 -3.492188 3.015625 -3.578125 C 2.921875 -3.671875 2.789062 -3.71875 2.625 -3.71875 Z M 1.546875 -1.9375 L 1.546875 -0.890625 L 2.828125 -0.890625 C 2.992188 -0.890625 3.128906 -0.9375 3.234375 -1.03125 C 3.335938 -1.132812 3.390625 -1.265625 3.390625 -1.421875 C 3.390625 -1.566406 3.335938 -1.6875 3.234375 -1.78125 C 3.128906 -1.882812 2.992188 -1.9375 2.828125 -1.9375 Z M 1.546875 -1.9375 "/></g></g></g><g fill="#f2e8cf" fill-opacity="1"><g transform="translate(55.184948, 55.749813)"><g><path d="M 3.390625 -4.609375 L 4.40625 -4.609375 L 4.40625 -4.3125 L 2.765625 -1.640625 L 2.765625 0 L 1.703125 0 L 1.703125 -1.640625 L 0.0625 -4.3125 L 0.0625 -4.609375 L 1.125 -4.609375 L 2.109375 -2.890625 L 2.21875 -2.5 L 2.25 -2.5 L 2.40625 -2.890625 Z M 3.390625 -4.609375 "/></g></g></g><g fill="#f2e8cf" fill-opacity="1"><g transform="translate(60.331803, 55.749813)"><g/></g></g><g fill="#f2e8cf" fill-opacity="1"><g transform="translate(62.915555, 55.749813)"><g><path d="M 1.9375 -0.828125 C 2.21875 -0.828125 2.414062 -0.867188 2.53125 -0.953125 C 2.644531 -1.035156 2.703125 -1.144531 2.703125 -1.28125 C 2.703125 -1.414062 2.640625 -1.519531 2.515625 -1.59375 C 2.398438 -1.664062 2.253906 -1.734375 2.078125 -1.796875 C 1.898438 -1.867188 1.707031 -1.9375 1.5 -2 C 1.289062 -2.0625 1.097656 -2.144531 0.921875 -2.25 C 0.742188 -2.363281 0.59375 -2.503906 0.46875 -2.671875 C 0.351562 -2.847656 0.296875 -3.078125 0.296875 -3.359375 C 0.296875 -3.535156 0.332031 -3.707031 0.40625 -3.875 C 0.488281 -4.039062 0.601562 -4.179688 0.75 -4.296875 C 0.894531 -4.421875 1.078125 -4.519531 1.296875 -4.59375 C 1.515625 -4.664062 1.765625 -4.703125 2.046875 -4.703125 C 2.316406 -4.703125 2.554688 -4.675781 2.765625 -4.625 C 2.984375 -4.570312 3.164062 -4.515625 3.3125 -4.453125 C 3.488281 -4.378906 3.632812 -4.296875 3.75 -4.203125 L 3.359375 -3.484375 L 3.09375 -3.484375 C 3.019531 -3.535156 2.9375 -3.582031 2.84375 -3.625 C 2.769531 -3.664062 2.671875 -3.703125 2.546875 -3.734375 C 2.429688 -3.765625 2.296875 -3.78125 2.140625 -3.78125 C 1.878906 -3.78125 1.691406 -3.738281 1.578125 -3.65625 C 1.472656 -3.570312 1.421875 -3.472656 1.421875 -3.359375 C 1.421875 -3.242188 1.476562 -3.148438 1.59375 -3.078125 C 1.707031 -3.003906 1.851562 -2.9375 2.03125 -2.875 C 2.207031 -2.820312 2.398438 -2.757812 2.609375 -2.6875 C 2.816406 -2.625 3.007812 -2.535156 3.1875 -2.421875 C 3.363281 -2.316406 3.507812 -2.175781 3.625 -2 C 3.75 -1.832031 3.8125 -1.613281 3.8125 -1.34375 C 3.8125 -1.144531 3.769531 -0.957031 3.6875 -0.78125 C 3.613281 -0.613281 3.5 -0.460938 3.34375 -0.328125 C 3.1875 -0.191406 2.992188 -0.0859375 2.765625 -0.015625 C 2.535156 0.0546875 2.269531 0.09375 1.96875 0.09375 C 1.695312 0.09375 1.453125 0.0703125 1.234375 0.03125 C 1.023438 -0.0078125 0.847656 -0.0546875 0.703125 -0.109375 C 0.535156 -0.171875 0.390625 -0.242188 0.265625 -0.328125 L 0.265625 -1.21875 L 0.53125 -1.21875 C 0.644531 -1.144531 0.773438 -1.078125 0.921875 -1.015625 C 1.054688 -0.972656 1.207031 -0.929688 1.375 -0.890625 C 1.539062 -0.847656 1.726562 -0.828125 1.9375 -0.828125 Z M 1.9375 -0.828125 "/></g></g></g><g fill="#f2e8cf" fill-opacity="1"><g transform="translate(67.865329, 55.749813)"><g><path d="M 3.953125 -4.609375 L 3.953125 -3.65625 L 2.5625 -3.65625 L 2.5625 0 L 1.515625 0 L 1.515625 -3.65625 L 0.125 -3.65625 L 0.125 -4.609375 Z M 3.953125 -4.609375 "/></g></g></g><g fill="#f2e8cf" fill-opacity="1"><g transform="translate(72.683593, 55.749813)"><g><path d="M 4.171875 -2.296875 C 4.171875 -2.523438 4.132812 -2.726562 4.0625 -2.90625 C 4 -3.09375 3.90625 -3.25 3.78125 -3.375 C 3.65625 -3.507812 3.507812 -3.609375 3.34375 -3.671875 C 3.175781 -3.742188 2.992188 -3.78125 2.796875 -3.78125 C 2.597656 -3.78125 2.414062 -3.742188 2.25 -3.671875 C 2.082031 -3.609375 1.9375 -3.507812 1.8125 -3.375 C 1.6875 -3.25 1.585938 -3.09375 1.515625 -2.90625 C 1.453125 -2.726562 1.421875 -2.523438 1.421875 -2.296875 C 1.421875 -2.078125 1.453125 -1.875 1.515625 -1.6875 C 1.585938 -1.507812 1.6875 -1.351562 1.8125 -1.21875 C 1.9375 -1.09375 2.082031 -0.992188 2.25 -0.921875 C 2.414062 -0.859375 2.597656 -0.828125 2.796875 -0.828125 C 2.984375 -0.828125 3.160156 -0.859375 3.328125 -0.921875 C 3.492188 -0.992188 3.640625 -1.09375 3.765625 -1.21875 C 3.890625 -1.351562 3.988281 -1.507812 4.0625 -1.6875 C 4.132812 -1.875 4.171875 -2.078125 4.171875 -2.296875 Z M 5.296875 -2.296875 C 5.296875 -1.941406 5.234375 -1.617188 5.109375 -1.328125 C 4.992188 -1.035156 4.828125 -0.78125 4.609375 -0.5625 C 4.390625 -0.351562 4.125 -0.191406 3.8125 -0.078125 C 3.507812 0.0351562 3.171875 0.09375 2.796875 0.09375 C 2.421875 0.09375 2.078125 0.0351562 1.765625 -0.078125 C 1.453125 -0.191406 1.1875 -0.351562 0.96875 -0.5625 C 0.757812 -0.78125 0.59375 -1.035156 0.46875 -1.328125 C 0.351562 -1.617188 0.296875 -1.941406 0.296875 -2.296875 C 0.296875 -2.648438 0.351562 -2.972656 0.46875 -3.265625 C 0.59375 -3.566406 0.757812 -3.820312 0.96875 -4.03125 C 1.1875 -4.238281 1.453125 -4.398438 1.765625 -4.515625 C 2.078125 -4.640625 2.421875 -4.703125 2.796875 -4.703125 C 3.171875 -4.703125 3.507812 -4.640625 3.8125 -4.515625 C 4.125 -4.398438 4.390625 -4.238281 4.609375 -4.03125 C 4.828125 -3.820312 4.992188 -3.566406 5.109375 -3.265625 C 5.234375 -2.972656 5.296875 -2.648438 5.296875 -2.296875 Z M 5.296875 -2.296875 "/></g></g></g><g fill="#f2e8cf" fill-opacity="1"><g transform="translate(79.144995, 55.749813)"><g><path d="M 0.5 -4.609375 L 2.5625 -4.609375 C 2.820312 -4.609375 3.0625 -4.566406 3.28125 -4.484375 C 3.5 -4.398438 3.679688 -4.285156 3.828125 -4.140625 C 3.984375 -4.003906 4.101562 -3.84375 4.1875 -3.65625 C 4.269531 -3.46875 4.3125 -3.269531 4.3125 -3.0625 C 4.3125 -2.925781 4.296875 -2.800781 4.265625 -2.6875 C 4.234375 -2.570312 4.191406 -2.46875 4.140625 -2.375 C 4.097656 -2.289062 4.046875 -2.210938 3.984375 -2.140625 C 3.921875 -2.066406 3.859375 -2.003906 3.796875 -1.953125 C 3.648438 -1.816406 3.484375 -1.710938 3.296875 -1.640625 L 4.375 -0.296875 L 4.375 0 L 3.328125 0 L 2.234375 -1.453125 L 1.546875 -1.453125 L 1.546875 0 L 0.5 0 Z M 1.546875 -3.6875 L 1.546875 -2.375 L 2.46875 -2.375 C 2.6875 -2.375 2.859375 -2.4375 2.984375 -2.5625 C 3.117188 -2.6875 3.1875 -2.84375 3.1875 -3.03125 C 3.1875 -3.207031 3.117188 -3.359375 2.984375 -3.484375 C 2.859375 -3.617188 2.6875 -3.6875 2.46875 -3.6875 Z M 1.546875 -3.6875 "/></g></g></g><g fill="#f2e8cf" fill-opacity="1"><g transform="translate(84.587695, 55.749813)"><g><path d="M 0.359375 -0.953125 L 1.015625 -0.953125 L 1.015625 -3.65625 L 0.359375 -3.65625 L 0.359375 -4.609375 L 2.734375 -4.609375 L 2.734375 -3.65625 L 2.078125 -3.65625 L 2.078125 -0.953125 L 2.734375 -0.953125 L 2.734375 0 L 0.359375 0 Z M 0.359375 -0.953125 "/></g></g></g><g fill="#f2e8cf" fill-opacity="1"><g transform="translate(88.55163, 55.749813)"><g><path d="M 0.5 -4.609375 L 3.90625 -4.609375 L 3.90625 -3.65625 L 1.546875 -3.65625 L 1.546875 -2.765625 L 3.484375 -2.765625 L 3.484375 -1.90625 L 1.546875 -1.90625 L 1.546875 -0.953125 L 3.984375 -0.953125 L 3.984375 0 L 0.5 0 Z M 0.5 -4.609375 "/></g></g></g><g fill="#f2e8cf" fill-opacity="1"><g transform="translate(93.665715, 55.749813)"><g><path d="M 1.9375 -0.828125 C 2.21875 -0.828125 2.414062 -0.867188 2.53125 -0.953125 C 2.644531 -1.035156 2.703125 -1.144531 2.703125 -1.28125 C 2.703125 -1.414062 2.640625 -1.519531 2.515625 -1.59375 C 2.398438 -1.664062 2.253906 -1.734375 2.078125 -1.796875 C 1.898438 -1.867188 1.707031 -1.9375 1.5 -2 C 1.289062 -2.0625 1.097656 -2.144531 0.921875 -2.25 C 0.742188 -2.363281 0.59375 -2.503906 0.46875 -2.671875 C 0.351562 -2.847656 0.296875 -3.078125 0.296875 -3.359375 C 0.296875 -3.535156 0.332031 -3.707031 0.40625 -3.875 C 0.488281 -4.039062 0.601562 -4.179688 0.75 -4.296875 C 0.894531 -4.421875 1.078125 -4.519531 1.296875 -4.59375 C 1.515625 -4.664062 1.765625 -4.703125 2.046875 -4.703125 C 2.316406 -4.703125 2.554688 -4.675781 2.765625 -4.625 C 2.984375 -4.570312 3.164062 -4.515625 3.3125 -4.453125 C 3.488281 -4.378906 3.632812 -4.296875 3.75 -4.203125 L 3.359375 -3.484375 L 3.09375 -3.484375 C 3.019531 -3.535156 2.9375 -3.582031 2.84375 -3.625 C 2.769531 -3.664062 2.671875 -3.703125 2.546875 -3.734375 C 2.429688 -3.765625 2.296875 -3.78125 2.140625 -3.78125 C 1.878906 -3.78125 1.691406 -3.738281 1.578125 -3.65625 C 1.472656 -3.570312 1.421875 -3.472656 1.421875 -3.359375 C 1.421875 -3.242188 1.476562 -3.148438 1.59375 -3.078125 C 1.707031 -3.003906 1.851562 -2.9375 2.03125 -2.875 C 2.207031 -2.820312 2.398438 -2.757812 2.609375 -2.6875 C 2.816406 -2.625 3.007812 -2.535156 3.1875 -2.421875 C 3.363281 -2.316406 3.507812 -2.175781 3.625 -2 C 3.75 -1.832031 3.8125 -1.613281 3.8125 -1.34375 C 3.8125 -1.144531 3.769531 -0.957031 3.6875 -0.78125 C 3.613281 -0.613281 3.5 -0.460938 3.34375 -0.328125 C 3.1875 -0.191406 2.992188 -0.0859375 2.765625 -0.015625 C 2.535156 0.0546875 2.269531 0.09375 1.96875 0.09375 C 1.695312 0.09375 1.453125 0.0703125 1.234375 0.03125 C 1.023438 -0.0078125 0.847656 -0.0546875 0.703125 -0.109375 C 0.535156 -0.171875 0.390625 -0.242188 0.265625 -0.328125 L 0.265625 -1.21875 L 0.53125 -1.21875 C 0.644531 -1.144531 0.773438 -1.078125 0.921875 -1.015625 C 1.054688 -0.972656 1.207031 -0.929688 1.375 -0.890625 C 1.539062 -0.847656 1.726562 -0.828125 1.9375 -0.828125 Z M 1.9375 -0.828125 "/></g></g></g><g fill="#f2e8cf" fill-opacity="1"><g transform="translate(98.615488, 55.749813)"><g><path d="M 1.375 -0.421875 C 1.375 -0.359375 1.363281 -0.289062 1.34375 -0.21875 C 1.320312 -0.15625 1.300781 -0.09375 1.28125 -0.03125 C 1.25 0.0390625 1.21875 0.109375 1.1875 0.171875 L 0.828125 0.828125 L 0.453125 0.828125 L 0.453125 0.6875 L 0.6875 0.0625 L 0.6875 0.03125 C 0.601562 0.0195312 0.523438 -0.00390625 0.453125 -0.046875 C 0.398438 -0.078125 0.347656 -0.125 0.296875 -0.1875 C 0.253906 -0.257812 0.234375 -0.347656 0.234375 -0.453125 C 0.234375 -0.609375 0.285156 -0.734375 0.390625 -0.828125 C 0.492188 -0.929688 0.640625 -0.984375 0.828125 -0.984375 C 0.992188 -0.984375 1.125 -0.929688 1.21875 -0.828125 C 1.320312 -0.722656 1.375 -0.585938 1.375 -0.421875 Z M 1.375 -0.421875 "/></g></g></g><g fill="#f2e8cf" fill-opacity="1"><g transform="translate(101.100658, 55.749813)"><g/></g></g><g fill="#f2e8cf" fill-opacity="1"><g transform="translate(103.684407, 55.749813)"><g><path d="M 0.5 -4.609375 L 3.78125 -4.609375 L 3.78125 -3.65625 L 1.546875 -3.65625 L 1.546875 -2.734375 L 3.421875 -2.734375 L 3.421875 -1.8125 L 1.546875 -1.8125 L 1.546875 0 L 0.5 0 Z M 0.5 -4.609375 "/></g></g></g><g fill="#f2e8cf" fill-opacity="1"><g transform="translate(108.568463, 55.749813)"><g><path d="M 2.4375 0.09375 C 2.125 0.09375 1.84375 0.0507812 1.59375 -0.03125 C 1.351562 -0.125 1.144531 -0.25 0.96875 -0.40625 C 0.800781 -0.570312 0.671875 -0.769531 0.578125 -1 C 0.492188 -1.226562 0.453125 -1.488281 0.453125 -1.78125 L 0.453125 -4.609375 L 1.515625 -4.609375 L 1.515625 -1.78125 C 1.515625 -1.632812 1.535156 -1.503906 1.578125 -1.390625 C 1.628906 -1.273438 1.695312 -1.171875 1.78125 -1.078125 C 1.863281 -0.992188 1.957031 -0.929688 2.0625 -0.890625 C 2.175781 -0.847656 2.300781 -0.828125 2.4375 -0.828125 C 2.5625 -0.828125 2.679688 -0.847656 2.796875 -0.890625 C 2.910156 -0.929688 3.007812 -0.992188 3.09375 -1.078125 C 3.175781 -1.171875 3.238281 -1.273438 3.28125 -1.390625 C 3.332031 -1.503906 3.359375 -1.632812 3.359375 -1.78125 L 3.359375 -4.609375 L 4.40625 -4.609375 L 4.40625 -1.78125 C 4.40625 -1.488281 4.359375 -1.226562 4.265625 -1 C 4.179688 -0.769531 4.054688 -0.570312 3.890625 -0.40625 C 3.722656 -0.25 3.515625 -0.125 3.265625 -0.03125 C 3.023438 0.0507812 2.75 0.09375 2.4375 0.09375 Z M 2.4375 0.09375 "/></g></g></g><g fill="#f2e8cf" fill-opacity="1"><g transform="translate(114.306916, 55.749813)"><g><path d="M 0.5 -4.609375 L 3.90625 -4.609375 L 3.90625 -3.65625 L 1.546875 -3.65625 L 1.546875 -2.765625 L 3.484375 -2.765625 L 3.484375 -1.90625 L 1.546875 -1.90625 L 1.546875 -0.953125 L 3.984375 -0.953125 L 3.984375 0 L 0.5 0 Z M 0.5 -4.609375 "/></g></g></g><g fill="#f2e8cf" fill-opacity="1"><g transform="translate(119.421001, 55.749813)"><g><path d="M 0.5 -4.609375 L 1.546875 -4.609375 L 1.546875 -0.953125 L 3.65625 -0.953125 L 3.65625 0 L 0.5 0 Z M 0.5 -4.609375 "/></g></g></g><g fill="#f2e8cf" fill-opacity="1"><g transform="translate(124.107891, 55.749813)"><g><path d="M 0.5 -4.609375 L 3.90625 -4.609375 L 3.90625 -3.65625 L 1.546875 -3.65625 L 1.546875 -2.765625 L 3.484375 -2.765625 L 3.484375 -1.90625 L 1.546875 -1.90625 L 1.546875 -0.953125 L 3.984375 -0.953125 L 3.984375 0 L 0.5 0 Z M 0.5 -4.609375 "/></g></g></g><g fill="#f2e8cf" fill-opacity="1"><g transform="translate(129.221983, 55.749813)"><g><path d="M 0.5 0 L 0.5 -4.609375 L 2.171875 -4.609375 C 2.546875 -4.609375 2.882812 -4.550781 3.1875 -4.4375 C 3.488281 -4.332031 3.742188 -4.175781 3.953125 -3.96875 C 4.160156 -3.769531 4.320312 -3.53125 4.4375 -3.25 C 4.550781 -2.96875 4.609375 -2.648438 4.609375 -2.296875 C 4.609375 -1.953125 4.550781 -1.640625 4.4375 -1.359375 C 4.320312 -1.078125 4.160156 -0.832031 3.953125 -0.625 C 3.742188 -0.425781 3.488281 -0.269531 3.1875 -0.15625 C 2.882812 -0.0507812 2.546875 0 2.171875 0 Z M 2.171875 -0.921875 C 2.367188 -0.921875 2.546875 -0.953125 2.703125 -1.015625 C 2.867188 -1.078125 3.007812 -1.164062 3.125 -1.28125 C 3.238281 -1.40625 3.328125 -1.550781 3.390625 -1.71875 C 3.453125 -1.894531 3.484375 -2.085938 3.484375 -2.296875 C 3.484375 -2.515625 3.453125 -2.707031 3.390625 -2.875 C 3.328125 -3.050781 3.238281 -3.195312 3.125 -3.3125 C 3.007812 -3.4375 2.867188 -3.53125 2.703125 -3.59375 C 2.546875 -3.65625 2.367188 -3.6875 2.171875 -3.6875 L 1.546875 -3.6875 L 1.546875 -0.921875 Z M 2.171875 -0.921875 "/></g></g></g><g fill="#f2e8cf" fill-opacity="1"><g transform="translate(134.993305, 55.749813)"><g/></g></g><g fill="#f2e8cf" fill-opacity="1"><g transform="translate(137.577061, 55.749813)"><g><path d="M 3.546875 -2.40625 C 3.722656 -2.351562 3.882812 -2.28125 4.03125 -2.1875 C 4.144531 -2.101562 4.25 -1.988281 4.34375 -1.84375 C 4.445312 -1.695312 4.5 -1.503906 4.5 -1.265625 C 4.5 -1.085938 4.460938 -0.921875 4.390625 -0.765625 C 4.328125 -0.617188 4.226562 -0.488281 4.09375 -0.375 C 3.96875 -0.257812 3.804688 -0.164062 3.609375 -0.09375 C 3.421875 -0.03125 3.207031 0 2.96875 0 L 0.5 0 L 0.5 -4.609375 L 2.796875 -4.609375 C 3.035156 -4.609375 3.242188 -4.578125 3.421875 -4.515625 C 3.609375 -4.453125 3.765625 -4.363281 3.890625 -4.25 C 4.015625 -4.132812 4.109375 -4 4.171875 -3.84375 C 4.242188 -3.695312 4.28125 -3.535156 4.28125 -3.359375 C 4.28125 -3.171875 4.238281 -3.019531 4.15625 -2.90625 C 4.082031 -2.789062 4 -2.695312 3.90625 -2.625 C 3.800781 -2.539062 3.679688 -2.476562 3.546875 -2.4375 Z M 1.546875 -3.71875 L 1.546875 -2.734375 L 2.625 -2.734375 C 2.789062 -2.734375 2.921875 -2.773438 3.015625 -2.859375 C 3.109375 -2.953125 3.15625 -3.070312 3.15625 -3.21875 C 3.15625 -3.375 3.109375 -3.492188 3.015625 -3.578125 C 2.921875 -3.671875 2.789062 -3.71875 2.625 -3.71875 Z M 1.546875 -1.9375 L 1.546875 -0.890625 L 2.828125 -0.890625 C 2.992188 -0.890625 3.128906 -0.9375 3.234375 -1.03125 C 3.335938 -1.132812 3.390625 -1.265625 3.390625 -1.421875 C 3.390625 -1.566406 3.335938 -1.6875 3.234375 -1.78125 C 3.128906 -1.882812 2.992188 -1.9375 2.828125 -1.9375 Z M 1.546875 -1.9375 "/></g></g></g><g fill="#f2e8cf" fill-opacity="1"><g transform="translate(143.052555, 55.749813)"><g><path d="M 3.390625 -4.609375 L 4.40625 -4.609375 L 4.40625 -4.3125 L 2.765625 -1.640625 L 2.765625 0 L 1.703125 0 L 1.703125 -1.640625 L 0.0625 -4.3125 L 0.0625 -4.609375 L 1.125 -4.609375 L 2.109375 -2.890625 L 2.21875 -2.5 L 2.25 -2.5 L 2.40625 -2.890625 Z M 3.390625 -4.609375 "/></g></g></g><g fill="#f2e8cf" fill-opacity="1"><g transform="translate(148.199414, 55.749813)"><g/></g></g><g fill="#f2e8cf" fill-opacity="1"><g transform="translate(150.78317, 55.749813)"><g><path d="M 2.796875 0.09375 C 2.421875 0.09375 2.078125 0.0351562 1.765625 -0.078125 C 1.453125 -0.191406 1.1875 -0.351562 0.96875 -0.5625 C 0.757812 -0.78125 0.59375 -1.035156 0.46875 -1.328125 C 0.351562 -1.617188 0.296875 -1.941406 0.296875 -2.296875 C 0.296875 -2.648438 0.351562 -2.972656 0.46875 -3.265625 C 0.59375 -3.566406 0.757812 -3.820312 0.96875 -4.03125 C 1.1875 -4.238281 1.453125 -4.398438 1.765625 -4.515625 C 2.078125 -4.640625 2.421875 -4.703125 2.796875 -4.703125 C 3.097656 -4.703125 3.351562 -4.671875 3.5625 -4.609375 C 3.78125 -4.546875 3.960938 -4.476562 4.109375 -4.40625 C 4.285156 -4.320312 4.425781 -4.222656 4.53125 -4.109375 L 4.140625 -3.390625 L 3.875 -3.390625 C 3.8125 -3.460938 3.734375 -3.523438 3.640625 -3.578125 C 3.546875 -3.628906 3.429688 -3.675781 3.296875 -3.71875 C 3.171875 -3.757812 3.015625 -3.78125 2.828125 -3.78125 C 2.617188 -3.78125 2.425781 -3.742188 2.25 -3.671875 C 2.082031 -3.609375 1.9375 -3.507812 1.8125 -3.375 C 1.6875 -3.25 1.585938 -3.09375 1.515625 -2.90625 C 1.453125 -2.726562 1.421875 -2.523438 1.421875 -2.296875 C 1.421875 -2.078125 1.453125 -1.875 1.515625 -1.6875 C 1.585938 -1.507812 1.6875 -1.351562 1.8125 -1.21875 C 1.9375 -1.09375 2.085938 -0.992188 2.265625 -0.921875 C 2.453125 -0.859375 2.648438 -0.828125 2.859375 -0.828125 C 2.992188 -0.828125 3.109375 -0.832031 3.203125 -0.84375 C 3.304688 -0.863281 3.390625 -0.890625 3.453125 -0.921875 C 3.535156 -0.941406 3.601562 -0.972656 3.65625 -1.015625 L 3.65625 -1.609375 L 2.625 -1.609375 L 2.625 -2.40625 L 4.671875 -2.40625 L 4.671875 -0.53125 C 4.523438 -0.40625 4.359375 -0.296875 4.171875 -0.203125 C 4.015625 -0.128906 3.820312 -0.0625 3.59375 0 C 3.363281 0.0625 3.097656 0.09375 2.796875 0.09375 Z M 2.796875 0.09375 "/></g></g></g><g fill="#f2e8cf" fill-opacity="1"><g transform="translate(156.71879, 55.749813)"><g><path d="M 4.171875 -2.296875 C 4.171875 -2.523438 4.132812 -2.726562 4.0625 -2.90625 C 4 -3.09375 3.90625 -3.25 3.78125 -3.375 C 3.65625 -3.507812 3.507812 -3.609375 3.34375 -3.671875 C 3.175781 -3.742188 2.992188 -3.78125 2.796875 -3.78125 C 2.597656 -3.78125 2.414062 -3.742188 2.25 -3.671875 C 2.082031 -3.609375 1.9375 -3.507812 1.8125 -3.375 C 1.6875 -3.25 1.585938 -3.09375 1.515625 -2.90625 C 1.453125 -2.726562 1.421875 -2.523438 1.421875 -2.296875 C 1.421875 -2.078125 1.453125 -1.875 1.515625 -1.6875 C 1.585938 -1.507812 1.6875 -1.351562 1.8125 -1.21875 C 1.9375 -1.09375 2.082031 -0.992188 2.25 -0.921875 C 2.414062 -0.859375 2.597656 -0.828125 2.796875 -0.828125 C 2.984375 -0.828125 3.160156 -0.859375 3.328125 -0.921875 C 3.492188 -0.992188 3.640625 -1.09375 3.765625 -1.21875 C 3.890625 -1.351562 3.988281 -1.507812 4.0625 -1.6875 C 4.132812 -1.875 4.171875 -2.078125 4.171875 -2.296875 Z M 5.296875 -2.296875 C 5.296875 -1.941406 5.234375 -1.617188 5.109375 -1.328125 C 4.992188 -1.035156 4.828125 -0.78125 4.609375 -0.5625 C 4.390625 -0.351562 4.125 -0.191406 3.8125 -0.078125 C 3.507812 0.0351562 3.171875 0.09375 2.796875 0.09375 C 2.421875 0.09375 2.078125 0.0351562 1.765625 -0.078125 C 1.453125 -0.191406 1.1875 -0.351562 0.96875 -0.5625 C 0.757812 -0.78125 0.59375 -1.035156 0.46875 -1.328125 C 0.351562 -1.617188 0.296875 -1.941406 0.296875 -2.296875 C 0.296875 -2.648438 0.351562 -2.972656 0.46875 -3.265625 C 0.59375 -3.566406 0.757812 -3.820312 0.96875 -4.03125 C 1.1875 -4.238281 1.453125 -4.398438 1.765625 -4.515625 C 2.078125 -4.640625 2.421875 -4.703125 2.796875 -4.703125 C 3.171875 -4.703125 3.507812 -4.640625 3.8125 -4.515625 C 4.125 -4.398438 4.390625 -4.238281 4.609375 -4.03125 C 4.828125 -3.820312 4.992188 -3.566406 5.109375 -3.265625 C 5.234375 -2.972656 5.296875 -2.648438 5.296875 -2.296875 Z M 5.296875 -2.296875 "/></g></g></g><g fill="#f2e8cf" fill-opacity="1"><g transform="translate(163.180191, 55.749813)"><g><path d="M 4.171875 -2.296875 C 4.171875 -2.523438 4.132812 -2.726562 4.0625 -2.90625 C 4 -3.09375 3.90625 -3.25 3.78125 -3.375 C 3.65625 -3.507812 3.507812 -3.609375 3.34375 -3.671875 C 3.175781 -3.742188 2.992188 -3.78125 2.796875 -3.78125 C 2.597656 -3.78125 2.414062 -3.742188 2.25 -3.671875 C 2.082031 -3.609375 1.9375 -3.507812 1.8125 -3.375 C 1.6875 -3.25 1.585938 -3.09375 1.515625 -2.90625 C 1.453125 -2.726562 1.421875 -2.523438 1.421875 -2.296875 C 1.421875 -2.078125 1.453125 -1.875 1.515625 -1.6875 C 1.585938 -1.507812 1.6875 -1.351562 1.8125 -1.21875 C 1.9375 -1.09375 2.082031 -0.992188 2.25 -0.921875 C 2.414062 -0.859375 2.597656 -0.828125 2.796875 -0.828125 C 2.984375 -0.828125 3.160156 -0.859375 3.328125 -0.921875 C 3.492188 -0.992188 3.640625 -1.09375 3.765625 -1.21875 C 3.890625 -1.351562 3.988281 -1.507812 4.0625 -1.6875 C 4.132812 -1.875 4.171875 -2.078125 4.171875 -2.296875 Z M 5.296875 -2.296875 C 5.296875 -1.941406 5.234375 -1.617188 5.109375 -1.328125 C 4.992188 -1.035156 4.828125 -0.78125 4.609375 -0.5625 C 4.390625 -0.351562 4.125 -0.191406 3.8125 -0.078125 C 3.507812 0.0351562 3.171875 0.09375 2.796875 0.09375 C 2.421875 0.09375 2.078125 0.0351562 1.765625 -0.078125 C 1.453125 -0.191406 1.1875 -0.351562 0.96875 -0.5625 C 0.757812 -0.78125 0.59375 -1.035156 0.46875 -1.328125 C 0.351562 -1.617188 0.296875 -1.941406 0.296875 -2.296875 C 0.296875 -2.648438 0.351562 -2.972656 0.46875 -3.265625 C 0.59375 -3.566406 0.757812 -3.820312 0.96875 -4.03125 C 1.1875 -4.238281 1.453125 -4.398438 1.765625 -4.515625 C 2.078125 -4.640625 2.421875 -4.703125 2.796875 -4.703125 C 3.171875 -4.703125 3.507812 -4.640625 3.8125 -4.515625 C 4.125 -4.398438 4.390625 -4.238281 4.609375 -4.03125 C 4.828125 -3.820312 4.992188 -3.566406 5.109375 -3.265625 C 5.234375 -2.972656 5.296875 -2.648438 5.296875 -2.296875 Z M 5.296875 -2.296875 "/></g></g></g><g fill="#f2e8cf" fill-opacity="1"><g transform="translate(169.641593, 55.749813)"><g><path d="M 2.796875 0.09375 C 2.421875 0.09375 2.078125 0.0351562 1.765625 -0.078125 C 1.453125 -0.191406 1.1875 -0.351562 0.96875 -0.5625 C 0.757812 -0.78125 0.59375 -1.035156 0.46875 -1.328125 C 0.351562 -1.617188 0.296875 -1.941406 0.296875 -2.296875 C 0.296875 -2.648438 0.351562 -2.972656 0.46875 -3.265625 C 0.59375 -3.566406 0.757812 -3.820312 0.96875 -4.03125 C 1.1875 -4.238281 1.453125 -4.398438 1.765625 -4.515625 C 2.078125 -4.640625 2.421875 -4.703125 2.796875 -4.703125 C 3.097656 -4.703125 3.351562 -4.671875 3.5625 -4.609375 C 3.78125 -4.546875 3.960938 -4.476562 4.109375 -4.40625 C 4.285156 -4.320312 4.425781 -4.222656 4.53125 -4.109375 L 4.140625 -3.390625 L 3.875 -3.390625 C 3.8125 -3.460938 3.734375 -3.523438 3.640625 -3.578125 C 3.546875 -3.628906 3.429688 -3.675781 3.296875 -3.71875 C 3.171875 -3.757812 3.015625 -3.78125 2.828125 -3.78125 C 2.617188 -3.78125 2.425781 -3.742188 2.25 -3.671875 C 2.082031 -3.609375 1.9375 -3.507812 1.8125 -3.375 C 1.6875 -3.25 1.585938 -3.09375 1.515625 -2.90625 C 1.453125 -2.726562 1.421875 -2.523438 1.421875 -2.296875 C 1.421875 -2.078125 1.453125 -1.875 1.515625 -1.6875 C 1.585938 -1.507812 1.6875 -1.351562 1.8125 -1.21875 C 1.9375 -1.09375 2.085938 -0.992188 2.265625 -0.921875 C 2.453125 -0.859375 2.648438 -0.828125 2.859375 -0.828125 C 2.992188 -0.828125 3.109375 -0.832031 3.203125 -0.84375 C 3.304688 -0.863281 3.390625 -0.890625 3.453125 -0.921875 C 3.535156 -0.941406 3.601562 -0.972656 3.65625 -1.015625 L 3.65625 -1.609375 L 2.625 -1.609375 L 2.625 -2.40625 L 4.671875 -2.40625 L 4.671875 -0.53125 C 4.523438 -0.40625 4.359375 -0.296875 4.171875 -0.203125 C 4.015625 -0.128906 3.820312 -0.0625 3.59375 0 C 3.363281 0.0625 3.097656 0.09375 2.796875 0.09375 Z M 2.796875 0.09375 "/></g></g></g><g fill="#f2e8cf" fill-opacity="1"><g transform="translate(175.577213, 55.749813)"><g><path d="M 0.5 -4.609375 L 1.546875 -4.609375 L 1.546875 -0.953125 L 3.65625 -0.953125 L 3.65625 0 L 0.5 0 Z M 0.5 -4.609375 "/></g></g></g><g fill="#f2e8cf" fill-opacity="1"><g transform="translate(180.264096, 55.749813)"><g><path d="M 0.5 -4.609375 L 3.90625 -4.609375 L 3.90625 -3.65625 L 1.546875 -3.65625 L 1.546875 -2.765625 L 3.484375 -2.765625 L 3.484375 -1.90625 L 1.546875 -1.90625 L 1.546875 -0.953125 L 3.984375 -0.953125 L 3.984375 0 L 0.5 0 Z M 0.5 -4.609375 "/></g></g></g><g fill="#f2e8cf" fill-opacity="1"><g transform="translate(185.378188, 55.749813)"><g/></g></g><g fill="#f2e8cf" fill-opacity="1"><g transform="translate(187.961944, 55.749813)"><g><path d="M 3.546875 -2.40625 C 3.722656 -2.351562 3.882812 -2.28125 4.03125 -2.1875 C 4.144531 -2.101562 4.25 -1.988281 4.34375 -1.84375 C 4.445312 -1.695312 4.5 -1.503906 4.5 -1.265625 C 4.5 -1.085938 4.460938 -0.921875 4.390625 -0.765625 C 4.328125 -0.617188 4.226562 -0.488281 4.09375 -0.375 C 3.96875 -0.257812 3.804688 -0.164062 3.609375 -0.09375 C 3.421875 -0.03125 3.207031 0 2.96875 0 L 0.5 0 L 0.5 -4.609375 L 2.796875 -4.609375 C 3.035156 -4.609375 3.242188 -4.578125 3.421875 -4.515625 C 3.609375 -4.453125 3.765625 -4.363281 3.890625 -4.25 C 4.015625 -4.132812 4.109375 -4 4.171875 -3.84375 C 4.242188 -3.695312 4.28125 -3.535156 4.28125 -3.359375 C 4.28125 -3.171875 4.238281 -3.019531 4.15625 -2.90625 C 4.082031 -2.789062 4 -2.695312 3.90625 -2.625 C 3.800781 -2.539062 3.679688 -2.476562 3.546875 -2.4375 Z M 1.546875 -3.71875 L 1.546875 -2.734375 L 2.625 -2.734375 C 2.789062 -2.734375 2.921875 -2.773438 3.015625 -2.859375 C 3.109375 -2.953125 3.15625 -3.070312 3.15625 -3.21875 C 3.15625 -3.375 3.109375 -3.492188 3.015625 -3.578125 C 2.921875 -3.671875 2.789062 -3.71875 2.625 -3.71875 Z M 1.546875 -1.9375 L 1.546875 -0.890625 L 2.828125 -0.890625 C 2.992188 -0.890625 3.128906 -0.9375 3.234375 -1.03125 C 3.335938 -1.132812 3.390625 -1.265625 3.390625 -1.421875 C 3.390625 -1.566406 3.335938 -1.6875 3.234375 -1.78125 C 3.128906 -1.882812 2.992188 -1.9375 2.828125 -1.9375 Z M 1.546875 -1.9375 "/></g></g></g><g fill="#f2e8cf" fill-opacity="1"><g transform="translate(193.568955, 55.749813)"><g><path d="M 4.171875 -2.296875 C 4.171875 -2.523438 4.132812 -2.726562 4.0625 -2.90625 C 4 -3.09375 3.90625 -3.25 3.78125 -3.375 C 3.65625 -3.507812 3.507812 -3.609375 3.34375 -3.671875 C 3.175781 -3.742188 2.992188 -3.78125 2.796875 -3.78125 C 2.597656 -3.78125 2.414062 -3.742188 2.25 -3.671875 C 2.082031 -3.609375 1.9375 -3.507812 1.8125 -3.375 C 1.6875 -3.25 1.585938 -3.09375 1.515625 -2.90625 C 1.453125 -2.726562 1.421875 -2.523438 1.421875 -2.296875 C 1.421875 -2.078125 1.453125 -1.875 1.515625 -1.6875 C 1.585938 -1.507812 1.6875 -1.351562 1.8125 -1.21875 C 1.9375 -1.09375 2.082031 -0.992188 2.25 -0.921875 C 2.414062 -0.859375 2.597656 -0.828125 2.796875 -0.828125 C 2.984375 -0.828125 3.160156 -0.859375 3.328125 -0.921875 C 3.492188 -0.992188 3.640625 -1.09375 3.765625 -1.21875 C 3.890625 -1.351562 3.988281 -1.507812 4.0625 -1.6875 C 4.132812 -1.875 4.171875 -2.078125 4.171875 -2.296875 Z M 5.296875 -2.296875 C 5.296875 -1.941406 5.234375 -1.617188 5.109375 -1.328125 C 4.992188 -1.035156 4.828125 -0.78125 4.609375 -0.5625 C 4.390625 -0.351562 4.125 -0.191406 3.8125 -0.078125 C 3.507812 0.0351562 3.171875 0.09375 2.796875 0.09375 C 2.421875 0.09375 2.078125 0.0351562 1.765625 -0.078125 C 1.453125 -0.191406 1.1875 -0.351562 0.96875 -0.5625 C 0.757812 -0.78125 0.59375 -1.035156 0.46875 -1.328125 C 0.351562 -1.617188 0.296875 -1.941406 0.296875 -2.296875 C 0.296875 -2.648438 0.351562 -2.972656 0.46875 -3.265625 C 0.59375 -3.566406 0.757812 -3.820312 0.96875 -4.03125 C 1.1875 -4.238281 1.453125 -4.398438 1.765625 -4.515625 C 2.078125 -4.640625 2.421875 -4.703125 2.796875 -4.703125 C 3.171875 -4.703125 3.507812 -4.640625 3.8125 -4.515625 C 4.125 -4.398438 4.390625 -4.238281 4.609375 -4.03125 C 4.828125 -3.820312 4.992188 -3.566406 5.109375 -3.265625 C 5.234375 -2.972656 5.296875 -2.648438 5.296875 -2.296875 Z M 5.296875 -2.296875 "/></g></g></g><g fill="#f2e8cf" fill-opacity="1"><g transform="translate(200.030357, 55.749813)"><g><path d="M 4.171875 -2.296875 C 4.171875 -2.523438 4.132812 -2.726562 4.0625 -2.90625 C 4 -3.09375 3.90625 -3.25 3.78125 -3.375 C 3.65625 -3.507812 3.507812 -3.609375 3.34375 -3.671875 C 3.175781 -3.742188 2.992188 -3.78125 2.796875 -3.78125 C 2.597656 -3.78125 2.414062 -3.742188 2.25 -3.671875 C 2.082031 -3.609375 1.9375 -3.507812 1.8125 -3.375 C 1.6875 -3.25 1.585938 -3.09375 1.515625 -2.90625 C 1.453125 -2.726562 1.421875 -2.523438 1.421875 -2.296875 C 1.421875 -2.078125 1.453125 -1.875 1.515625 -1.6875 C 1.585938 -1.507812 1.6875 -1.351562 1.8125 -1.21875 C 1.9375 -1.09375 2.082031 -0.992188 2.25 -0.921875 C 2.414062 -0.859375 2.597656 -0.828125 2.796875 -0.828125 C 2.984375 -0.828125 3.160156 -0.859375 3.328125 -0.921875 C 3.492188 -0.992188 3.640625 -1.09375 3.765625 -1.21875 C 3.890625 -1.351562 3.988281 -1.507812 4.0625 -1.6875 C 4.132812 -1.875 4.171875 -2.078125 4.171875 -2.296875 Z M 5.296875 -2.296875 C 5.296875 -1.941406 5.234375 -1.617188 5.109375 -1.328125 C 4.992188 -1.035156 4.828125 -0.78125 4.609375 -0.5625 C 4.390625 -0.351562 4.125 -0.191406 3.8125 -0.078125 C 3.507812 0.0351562 3.171875 0.09375 2.796875 0.09375 C 2.421875 0.09375 2.078125 0.0351562 1.765625 -0.078125 C 1.453125 -0.191406 1.1875 -0.351562 0.96875 -0.5625 C 0.757812 -0.78125 0.59375 -1.035156 0.46875 -1.328125 C 0.351562 -1.617188 0.296875 -1.941406 0.296875 -2.296875 C 0.296875 -2.648438 0.351562 -2.972656 0.46875 -3.265625 C 0.59375 -3.566406 0.757812 -3.820312 0.96875 -4.03125 C 1.1875 -4.238281 1.453125 -4.398438 1.765625 -4.515625 C 2.078125 -4.640625 2.421875 -4.703125 2.796875 -4.703125 C 3.171875 -4.703125 3.507812 -4.640625 3.8125 -4.515625 C 4.125 -4.398438 4.390625 -4.238281 4.609375 -4.03125 C 4.828125 -3.820312 4.992188 -3.566406 5.109375 -3.265625 C 5.234375 -2.972656 5.296875 -2.648438 5.296875 -2.296875 Z M 5.296875 -2.296875 "/></g></g></g><g fill="#f2e8cf" fill-opacity="1"><g transform="translate(206.491758, 55.749813)"><g><path d="M 0.5 -4.609375 L 1.546875 -4.609375 L 1.546875 -2.796875 L 2 -2.796875 L 3.359375 -4.609375 L 4.40625 -4.609375 L 4.40625 -4.3125 L 2.890625 -2.375 L 4.46875 -0.296875 L 4.46875 0 L 3.390625 0 L 2.078125 -1.84375 L 1.546875 -1.84375 L 1.546875 0 L 0.5 0 Z M 0.5 -4.609375 "/></g></g></g><g fill="#f2e8cf" fill-opacity="1"><g transform="translate(211.967321, 55.749813)"><g><path d="M 1.9375 -0.828125 C 2.21875 -0.828125 2.414062 -0.867188 2.53125 -0.953125 C 2.644531 -1.035156 2.703125 -1.144531 2.703125 -1.28125 C 2.703125 -1.414062 2.640625 -1.519531 2.515625 -1.59375 C 2.398438 -1.664062 2.253906 -1.734375 2.078125 -1.796875 C 1.898438 -1.867188 1.707031 -1.9375 1.5 -2 C 1.289062 -2.0625 1.097656 -2.144531 0.921875 -2.25 C 0.742188 -2.363281 0.59375 -2.503906 0.46875 -2.671875 C 0.351562 -2.847656 0.296875 -3.078125 0.296875 -3.359375 C 0.296875 -3.535156 0.332031 -3.707031 0.40625 -3.875 C 0.488281 -4.039062 0.601562 -4.179688 0.75 -4.296875 C 0.894531 -4.421875 1.078125 -4.519531 1.296875 -4.59375 C 1.515625 -4.664062 1.765625 -4.703125 2.046875 -4.703125 C 2.316406 -4.703125 2.554688 -4.675781 2.765625 -4.625 C 2.984375 -4.570312 3.164062 -4.515625 3.3125 -4.453125 C 3.488281 -4.378906 3.632812 -4.296875 3.75 -4.203125 L 3.359375 -3.484375 L 3.09375 -3.484375 C 3.019531 -3.535156 2.9375 -3.582031 2.84375 -3.625 C 2.769531 -3.664062 2.671875 -3.703125 2.546875 -3.734375 C 2.429688 -3.765625 2.296875 -3.78125 2.140625 -3.78125 C 1.878906 -3.78125 1.691406 -3.738281 1.578125 -3.65625 C 1.472656 -3.570312 1.421875 -3.472656 1.421875 -3.359375 C 1.421875 -3.242188 1.476562 -3.148438 1.59375 -3.078125 C 1.707031 -3.003906 1.851562 -2.9375 2.03125 -2.875 C 2.207031 -2.820312 2.398438 -2.757812 2.609375 -2.6875 C 2.816406 -2.625 3.007812 -2.535156 3.1875 -2.421875 C 3.363281 -2.316406 3.507812 -2.175781 3.625 -2 C 3.75 -1.832031 3.8125 -1.613281 3.8125 -1.34375 C 3.8125 -1.144531 3.769531 -0.957031 3.6875 -0.78125 C 3.613281 -0.613281 3.5 -0.460938 3.34375 -0.328125 C 3.1875 -0.191406 2.992188 -0.0859375 2.765625 -0.015625 C 2.535156 0.0546875 2.269531 0.09375 1.96875 0.09375 C 1.695312 0.09375 1.453125 0.0703125 1.234375 0.03125 C 1.023438 -0.0078125 0.847656 -0.0546875 0.703125 -0.109375 C 0.535156 -0.171875 0.390625 -0.242188 0.265625 -0.328125 L 0.265625 -1.21875 L 0.53125 -1.21875 C 0.644531 -1.144531 0.773438 -1.078125 0.921875 -1.015625 C 1.054688 -0.972656 1.207031 -0.929688 1.375 -0.890625 C 1.539062 -0.847656 1.726562 -0.828125 1.9375 -0.828125 Z M 1.9375 -0.828125 "/></g></g></g><g fill="#f2e8cf" fill-opacity="1"><g transform="translate(216.917102, 55.749813)"><g><path d="M 0.796875 0.0625 C 0.628906 0.0625 0.492188 0.015625 0.390625 -0.078125 C 0.285156 -0.179688 0.234375 -0.304688 0.234375 -0.453125 C 0.234375 -0.609375 0.285156 -0.734375 0.390625 -0.828125 C 0.492188 -0.929688 0.640625 -0.984375 0.828125 -0.984375 C 0.992188 -0.984375 1.125 -0.929688 1.21875 -0.828125 C 1.320312 -0.734375 1.375 -0.609375 1.375 -0.453125 C 1.375 -0.304688 1.320312 -0.179688 1.21875 -0.078125 C 1.113281 0.015625 0.972656 0.0625 0.796875 0.0625 Z M 0.796875 0.0625 "/></g></g></g><g fill="#f2e8cf" fill-opacity="1"><g transform="translate(219.405286, 55.749813)"><g/></g></g><g clip-path="url(#6650034cc8)"><path fill="#f2e8cf" d="M 6.203125 24.054688 L 13.640625 24.054688 L 13.640625 32.421875 L 6.203125 32.421875 Z M 6.203125 24.054688 " fill-opacity="1" fill-rule="nonzero"/></g><g clip-path="url(#d7bdcdfd8c)"><path fill="#a7c957" d="M 6.203125 32.425781 L 13.640625 32.425781 L 13.640625 40.789062 L 6.203125 40.789062 Z M 6.203125 32.425781 " fill-opacity="1" fill-rule="nonzero"/></g></svg>